<svg xmlns:xlink="http://www.w3.org/1999/xlink" width="200" height="48" viewBox="0 0 100 24" fill="url('#logo-gradient')" xmlns="http://www.w3.org/2000/svg" style="fill: rgb(9, 4, 74);">
  <defs>  
    <linearGradient id="logo-gradient" x1="0%" y1="0%" x2="100%" y2="100%"> 
      <stop offset="0%" style="stop-color:var(--grade1);stop-opacity:1"></stop>
      <stop offset="100%" style="stop-color:var(--grade2);stop-opacity:1"></stop>
    </linearGradient> 
  </defs>
<g fill="#09044A">
<path d="M2.92622 19.0513C4.54233 19.0513 5.85245 17.7436 5.85245 16.1304C5.85245 14.5172 4.54233 13.2095 2.92622 13.2095C1.31012 13.2095 0 14.5172 0 16.1304C0 17.7436 1.31012 19.0513 2.92622 19.0513Z" fill="#09044A"></path>
<path d="M20.9557 12.9018C20.9557 16.4479 19.119 19.0656 15.3038 19.0656C13.6395 19.0656 12.5488 18.684 11.8322 17.9476V24.0002H8.76172V5.18335H11.8322V6.27445C12.5488 5.42803 13.697 4.9375 15.3319 4.9375C18.7754 4.9375 20.9616 7.14663 20.9616 11.0474L20.9557 12.9018ZM17.9145 12.7614V11.1832C17.9145 8.81021 16.9106 7.47443 14.8734 7.47443C12.8643 7.47443 11.8604 8.78328 11.8322 11.0193V12.7614C11.8322 14.8897 12.5488 16.5533 14.8734 16.5533C17.0537 16.5568 17.9145 14.8932 17.9145 12.7614Z" fill="#09044A"></path>
<path d="M23.0781 0H26.1533V13.8554C26.1533 15.3281 26.4395 16.2565 28.3336 16.2565V18.8203C24.604 18.8203 23.0828 17.6742 23.0828 14.5379L23.0781 0Z" fill="#09044A"></path>
<path d="M35.2153 10.7711H38.3139V9.62854C38.3139 7.90993 37.6255 7.44633 35.4733 7.44633C33.924 7.44633 33.1499 7.61023 32.4603 8.67441L30.2519 7.20165C31.284 5.59193 32.8321 4.9375 35.6739 4.9375C39.3472 4.9375 41.327 6.0286 41.327 9.65663V18.821H38.3139V17.5613C37.6255 18.6243 36.7353 19.0609 34.9854 19.0609C31.8293 19.0609 29.8789 17.539 29.8789 14.8066C29.8789 11.8927 32.1448 10.7711 35.2153 10.7711ZM38.3139 13.0072H35.4452C33.6367 13.0072 32.8908 13.6078 32.8908 14.8078C32.8908 16.0616 33.8666 16.5802 35.3303 16.5802C37.1951 16.5802 38.3139 16.0347 38.3139 13.6616V13.0072Z" fill="#09044A"></path>
<path d="M44.0234 5.18335H47.0306V6.41025C47.6627 5.59076 48.6948 4.9375 50.589 4.9375C53.5445 4.9375 55.8104 6.35523 55.8104 10.283V18.821H52.7775V10.6108C52.7775 8.21081 51.6304 7.52828 50.0518 7.52828C48.1577 7.52828 47.0963 8.75636 47.0963 10.5838V18.821H44.0234V5.18335Z" fill="#09044A"></path>
<path d="M69.3574 16.7476C68.3523 18.4112 66.7455 19.0656 64.2216 19.0656C60.1166 19.0656 57.9375 16.5299 57.9375 12.9018V11.0474C57.9375 7.03775 60.0029 4.9375 63.7618 4.9375C67.6931 4.9375 69.558 7.17356 69.558 11.2102V12.711H60.9787V12.7614C60.9787 14.8897 61.8395 16.5533 64.1066 16.5533C65.799 16.5533 66.4875 16.0616 67.061 15.2163L69.3574 16.7476ZM61.008 10.4738H66.4875C66.3702 8.48358 65.5117 7.47443 63.7618 7.47443C61.9826 7.47443 61.1511 8.61938 61.008 10.4738Z" fill="#09044A"></path>
<path d="M70.7891 5.18315H72.6257V2.18262H75.6669V5.18315H78.708V7.69198H75.6669V13.9377C75.6669 15.5205 75.9249 16.2019 77.5317 16.2019H78.7045V18.8208H77.2971C73.8537 18.8208 72.6199 17.7016 72.6199 14.4891V7.699H70.7891V5.18315Z" fill="#09044A"></path>
<path d="M81.2344 0H84.3037V13.8554C84.3037 15.3281 84.591 16.2565 86.4852 16.2565V18.8203C82.7544 18.8203 81.2344 17.6742 81.2344 14.5379V0Z" fill="#09044A"></path>
<path d="M89.9292 5.18262L93.5732 14.7824L96.8443 5.18262H100L94.9501 19.3658C93.7163 22.8568 92.6549 23.9994 88.6379 23.9994V21.3291C90.647 21.3291 91.4527 21.0294 92.167 18.9876L86.6875 5.18262H89.9292Z" fill="#09044A"></path>
<path d="M2.92622 19.0513C4.54233 19.0513 5.85245 17.7436 5.85245 16.1304C5.85245 14.5172 4.54233 13.2095 2.92622 13.2095C1.31012 13.2095 0 14.5172 0 16.1304C0 17.7436 1.31012 19.0513 2.92622 19.0513Z" fill="#09044A"></path>
<path d="M20.9557 12.9018C20.9557 16.4479 19.119 19.0656 15.3038 19.0656C13.6395 19.0656 12.5488 18.684 11.8322 17.9476V24.0002H8.76172V5.18335H11.8322V6.27445C12.5488 5.42803 13.697 4.9375 15.3319 4.9375C18.7754 4.9375 20.9616 7.14663 20.9616 11.0474L20.9557 12.9018ZM17.9145 12.7614V11.1832C17.9145 8.81021 16.9106 7.47443 14.8734 7.47443C12.8643 7.47443 11.8604 8.78328 11.8322 11.0193V12.7614C11.8322 14.8897 12.5488 16.5533 14.8734 16.5533C17.0537 16.5568 17.9145 14.8932 17.9145 12.7614Z" fill="#09044A"></path>
<path d="M23.0781 0H26.1533V13.8554C26.1533 15.3281 26.4395 16.2565 28.3336 16.2565V18.8203C24.604 18.8203 23.0828 17.6742 23.0828 14.5379L23.0781 0Z" fill="#09044A"></path>
<path d="M35.2153 10.7711H38.3139V9.62854C38.3139 7.90993 37.6255 7.44633 35.4733 7.44633C33.924 7.44633 33.1499 7.61023 32.4603 8.67441L30.2519 7.20165C31.284 5.59193 32.8321 4.9375 35.6739 4.9375C39.3472 4.9375 41.327 6.0286 41.327 9.65663V18.821H38.3139V17.5613C37.6255 18.6243 36.7353 19.0609 34.9854 19.0609C31.8293 19.0609 29.8789 17.539 29.8789 14.8066C29.8789 11.8927 32.1448 10.7711 35.2153 10.7711ZM38.3139 13.0072H35.4452C33.6367 13.0072 32.8908 13.6078 32.8908 14.8078C32.8908 16.0616 33.8666 16.5802 35.3303 16.5802C37.1951 16.5802 38.3139 16.0347 38.3139 13.6616V13.0072Z" fill="#09044A"></path>
<path d="M44.0234 5.18335H47.0306V6.41025C47.6627 5.59076 48.6948 4.9375 50.589 4.9375C53.5445 4.9375 55.8104 6.35523 55.8104 10.283V18.821H52.7775V10.6108C52.7775 8.21081 51.6304 7.52828 50.0518 7.52828C48.1577 7.52828 47.0963 8.75636 47.0963 10.5838V18.821H44.0234V5.18335Z" fill="#09044A"></path>
<path d="M69.3574 16.7476C68.3523 18.4112 66.7455 19.0656 64.2216 19.0656C60.1166 19.0656 57.9375 16.5299 57.9375 12.9018V11.0474C57.9375 7.03775 60.0029 4.9375 63.7618 4.9375C67.6931 4.9375 69.558 7.17356 69.558 11.2102V12.711H60.9787V12.7614C60.9787 14.8897 61.8395 16.5533 64.1066 16.5533C65.799 16.5533 66.4875 16.0616 67.061 15.2163L69.3574 16.7476ZM61.008 10.4738H66.4875C66.3702 8.48358 65.5117 7.47443 63.7618 7.47443C61.9826 7.47443 61.1511 8.61938 61.008 10.4738Z" fill="#09044A"></path>
<path d="M70.7891 5.18315H72.6257V2.18262H75.6669V5.18315H78.708V7.69198H75.6669V13.9377C75.6669 15.5205 75.9249 16.2019 77.5317 16.2019H78.7045V18.8208H77.2971C73.8537 18.8208 72.6199 17.7016 72.6199 14.4891V7.699H70.7891V5.18315Z" fill="#09044A"></path>
<path d="M81.2344 0H84.3037V13.8554C84.3037 15.3281 84.591 16.2565 86.4852 16.2565V18.8203C82.7544 18.8203 81.2344 17.6742 81.2344 14.5379V0Z" fill="#09044A"></path>
<path d="M89.9292 5.18262L93.5732 14.7824L96.8443 5.18262H100L94.9501 19.3658C93.7163 22.8568 92.6549 23.9994 88.6379 23.9994V21.3291C90.647 21.3291 91.4527 21.0294 92.167 18.9876L86.6875 5.18262H89.9292Z" fill="#09044A"></path>
</g>
</svg>